<svg id="fresh-svg" width="100%" height="100%" viewBox="0 0 78 77" version="1.1" xmlns="http://www.w3.org/2000/svg"
     style="fill-rule:evenodd;clip-rule:evenodd;stroke-linejoin:round;stroke-miterlimit:2;">
    <g id="fresh-svg">
        <path d="M77.93,38.261c0,21.486 -17.444,38.93 -38.93,38.93c-21.486,-0 -38.93,-17.444 -38.93,-38.93c-0,-21.486 17.444,-38.93 38.93,-38.93c21.486,-0 38.93,17.444 38.93,38.93Z"
              style="fill:#ffd102;"/>
        <path
                d="M76.04,38.261c0,20.443 -16.597,37.04 -37.04,37.04c-20.443,0 -37.04,-16.597 -37.04,-37.04c-0,-20.443 16.597,-37.04 37.04,-37.04c20.443,-0 37.04,16.597 37.04,37.04Z"
                fill="white"/>
        <path
                d="M72.639,38.261c-0,18.566 -15.073,33.639 -33.639,33.639c-18.566,-0 -33.639,-15.073 -33.639,-33.639c0,-18.566 15.073,-33.639 33.639,-33.639c18.566,0 33.639,15.073 33.639,33.639Z"
                style="fill:#fee46d;"/>
        <path
                d="M44.291,38.261c0,2.92 -2.371,5.291 -5.291,5.291c-2.92,0 -5.291,-2.371 -5.291,-5.291c-0,-2.921 2.371,-5.292 5.291,-5.292c2.92,0 5.291,2.371 5.291,5.292Z"
                fill="white"/>
        <path d="M73.772,37.127l0,2.268l-70.678,-0l-0,-2.268l70.678,0Z"
              fill="white"/>
        <rect x="37.511" y="2.71" width="2.268"
              height="70.679"
              fill="white"/>
        <path
                d="M14.24,63.87l-1.581,-1.626l50.671,-49.275l1.581,1.626l-50.671,49.275Z"
                style="fill:#f7fedc;fill-rule:nonzero;"/>
        <path
                d="M13.331,14.174l1.625,-1.581l49.275,50.671l-1.626,1.581l-49.274,-50.671Z"
                fill="white"/>
    </g>
</svg>