<svg id="javasvg" width="100%" height="100%" viewBox="0 0 92 128" version="1.1" xmlns="http://www.w3.org/2000/svg"
     style="fill-rule:evenodd;clip-rule:evenodd;stroke-linejoin:round;stroke-miterlimit:2;"><path d="M29.733,97.875c-0,0 -4.733,2.754 3.374,3.685c9.819,1.122 14.839,0.96 25.659,-1.085c-0,0 2.852,1.783 6.824,3.328c-24.263,10.395 -54.913,-0.603 -35.857,-5.928Zm-2.967,-13.568c-0,0 -5.31,3.933 2.803,4.772c10.491,1.082 18.773,1.171 33.115,-1.59c0,0 1.979,2.012 5.096,3.109c-29.33,8.58 -61.999,0.676 -41.014,-6.291Z" style="fill:#0074bd;fill-rule:nonzero;"/>
    <path d="M51.759,61.291c5.982,6.886 -1.568,13.077 -1.568,13.077c0,-0 15.18,-7.836 8.209,-17.651c-6.513,-9.15 -11.503,-13.694 15.522,-29.368c0.002,0 -42.424,10.593 -22.163,33.942Z"
          style="fill:#ea2d2e;fill-rule:nonzero;"/>
    <path d="M83.849,107.911c-0,0 3.505,2.89 -3.859,5.124c-14.002,4.241 -58.286,5.521 -70.586,0.168c-4.418,-1.924 3.873,-4.593 6.48,-5.153c2.719,-0.59 4.273,-0.482 4.273,-0.482c-4.918,-3.463 -31.785,6.801 -13.646,9.745c49.465,8.017 90.167,-3.611 77.338,-9.402Zm-51.838,-37.662c0,-0 -22.523,5.351 -7.975,7.296c6.145,0.822 18.386,0.633 29.797,-0.324c9.323,-0.782 18.679,-2.456 18.679,-2.456c-0,0 -3.285,1.41 -5.664,3.033c-22.877,6.016 -67.06,3.213 -54.34,-2.937c10.756,-5.204 19.503,-4.612 19.503,-4.612Zm40.407,22.582c23.253,-12.079 12.5,-23.689 4.996,-22.125c-1.834,0.383 -2.659,0.715 -2.659,0.715c0,-0 0.685,-1.073 1.986,-1.532c14.847,-5.217 26.262,15.392 -4.787,23.555c-0,-0 0.356,-0.323 0.464,-0.613Z"
          style="fill:#0074bd;fill-rule:nonzero;"/>
    <path d="M58.401,2.034c0,0 12.877,12.883 -12.215,32.688c-20.121,15.891 -4.588,24.95 -0.008,35.305c-11.746,-10.598 -20.361,-19.928 -14.582,-28.609c8.487,-12.743 31.999,-18.924 26.805,-39.384Z"
          style="fill:#ea2d2e;fill-rule:nonzero;"/>
    <path d="M34.298,125.577c22.315,1.427 56.592,-0.794 57.404,-11.353c-0,-0 -1.56,4.002 -18.445,7.178c-19.049,3.585 -42.547,3.169 -56.48,0.869c0,-0 2.854,2.363 17.521,3.306Z"
          style="fill:#0074bd;fill-rule:nonzero;"/></svg>