<svg id="spring-svg" width="100%" height="100%" viewBox="0 0 98 98" version="1.1" xmlns="http://www.w3.org/2000/svg"
     style="fill-rule:evenodd;clip-rule:evenodd;stroke-linejoin:round;stroke-miterlimit:2;"><path d="M88.894,6.222c-1.3,3.2 -3.1,6.3 -5.2,9.1c-18.6,-19.3 -49.3,-19.8 -68.5,-1.2c-19.2,18.6 -19.8,49.3 -1.2,68.5c0.6,0.7 1.3,1.3 2,1.9l1.8,1.6c20.4,17.2 51,14.6 68.2,-5.8c6.6,-7.8 10.6,-17.6 11.3,-27.8c1.4,-12.1 -2.3,-27.7 -8.4,-46.3Zm-65.9,78.8c-1.4,1.8 -4,2 -5.8,0.6c-1.8,-1.4 -2,-4 -0.6,-5.8c1.4,-1.8 4,-2 5.8,-0.6c1.7,1.4 2,4 0.6,5.8Zm65.6,-14.5c-11.9,15.9 -37.5,10.5 -53.8,11.3c-0,0 -2.9,0.2 -5.8,0.6c-0,0 1.1,-0.5 2.5,-1c11.5,-4 16.9,-4.8 23.9,-8.4c13.1,-6.7 26.2,-21.4 28.8,-36.6c-5,14.6 -20.2,27.2 -34,32.3c-9.5,3.5 -26.6,6.9 -26.6,6.9l-0.7,-0.4c-11.6,-5.7 -12,-30.9 9.2,-39c9.3,-3.6 18.1,-1.6 28.2,-4c10.7,-2.5 23.1,-10.5 28.1,-21c5.6,16.9 12.4,43.1 0.2,59.3Z" style="fill:#6db33f;fill-rule:nonzero;"/>
    <path d="M85.994,80.322c6.6,-7.8 10.6,-17.6 11.3,-27.8" style="fill:#6db33f;fill-rule:nonzero;"/>
    <path d="M88.594,70.522c-11.9,15.9 -37.5,10.5 -53.8,11.3c-0,0 -2.9,0.2 -5.8,0.6c-0,0 1.1,-0.5 2.5,-1c11.5,-4 16.9,-4.8 23.9,-8.4c13.1,-6.7 26.2,-21.4 28.8,-36.6c-5,14.6 -20.2,27.2 -34,32.3c-9.5,3.5 -26.6,6.9 -26.6,6.9l-0.7,-0.4c-11.6,-5.7 -12,-30.9 9.2,-39c9.3,-3.6 18.1,-1.6 28.2,-4c10.7,-2.5 23.1,-10.5 28.1,-21c5.6,16.9 12.4,43.1 0.2,59.3Z"
          style="fill:#fff;fill-rule:nonzero;"/>
    <path d="M22.994,85.022c-1.4,1.8 -4,2 -5.8,0.6c-1.8,-1.4 -2,-4 -0.6,-5.8c1.4,-1.8 4,-2 5.8,-0.6c1.7,1.4 2,4 0.6,5.8Z"
          style="fill:#fff;fill-rule:nonzero;"/></svg>