<svg id="typescript-svg" xmlns="http://www.w3.org/2000/svg" viewBox="0 0 32 32">
    <path fill="#007acc" d="M2 16 2 30 16 30 30 30 30 16 30 2 16 2 2 2 2 16z"/>
    <path d="M24.6 14.9a3.5 3.5 0 0 1 1.7 1 4.6 4.6 0 0 1 .7.9L25 18l-.2-.3a1.6 1.6 0 0 0-1.3-.8c-.9 0-1.4.4-1.4 1.2a1 1 0 0 0 .1.5c.2.4.5.6 1.6 1 2 1 2.9 1.5 3.4 2.3a4 4 0 0 1 .3 3.4 3.8 3.8 0 0 1-3 2.3 8.6 8.6 0 0 1-2.2 0 5.1 5.1 0 0 1-2.8-1.6 5 5 0 0 1-.8-1 2 2 0 0 1 .3-.2l1-.6.8-.5.2.3a3.8 3.8 0 0 0 1 1 2.6 2.6 0 0 0 2.8-.1 1.2 1.2 0 0 0 .1-1.6c-.2-.3-.6-.6-1.9-1.1a7 7 0 0 1-2.6-1.6 3.7 3.7 0 0 1-.8-1.4 5.6 5.6 0 0 1 0-1.8 3.4 3.4 0 0 1 2.8-2.7 7 7 0 0 1 2.2 0ZM18 16v1.1h-3.6v10.4h-2.6V17.2H8v-1.1a11 11 0 0 1 0-1.2H18Z"
          fill="#fff"/>
</svg>